<svg xmlns:xlink="http://www.w3.org/1999/xlink" width="984.4pt" height="365.963" viewBox="0 0 984.4 274.473" xmlns="http://www.w3.org/2000/svg"><defs><style>*{stroke-linejoin:round;stroke-linecap:butt}</style></defs><g id="figure_1"><path d="M0 274.473h984.4V0H0z" style="fill:#fff" id="patch_1"/><g id="axes_1"><path d="M45.8 252.148h892.8V30.388H45.8z" style="fill:#fff" id="patch_2"/><g id="matplotlib.axis_1"><g id="xtick_1"><g id="line2d_1"><defs><path id="m02399579e0" d="M0 0v3.5" style="stroke:#000;stroke-width:.8"/></defs><use xlink:href="#m02399579e0" x="85.854" y="252.148" style="stroke:#000;stroke-width:.8"/></g><g transform="matrix(.1 0 0 -.1 68.354 266.022)" id="text_1"><defs><path id="SimHei-32" d="M300 250q25 375 350 675t825 937q500 638 650 988t112 600q-37 250-237 412-200 163-463 138-262-25-500-200-237-175-362-525l-475 75q200 575 512 837 313 263 738 288 250 25 450-13 200-37 412-175 213-137 350-412 138-275 100-663-37-387-387-925-350-537-1350-1687h1800V150H300v100z" transform="scale(.01563)"/><path id="SimHei-30" d="M225 2537q25 663 187 1050 163 388 463 638t737 250q438 0 763-363 325-362 425-912t62-1263q-37-712-250-1162-212-450-637-625t-850 37Q700 400 525 750t-250 737q-75 388-50 1050zm525 150q-75-687 50-1225 125-537 412-762 288-225 588-88 300 138 437 550 138 413 138 900 0 488-38 888-37 400-225 725-187 325-500 337-312 13-550-312-237-325-312-1013z" transform="scale(.01563)"/><path id="SimHei-2d" d="M2975 2125H125v400h2850v-400z" transform="scale(.01563)"/><path id="SimHei-31" d="M1400 3600q-325-325-825-625v475q625 425 1025 1000h300V150h-500v3450z" transform="scale(.01563)"/></defs><use xlink:href="#SimHei-32"/><use xlink:href="#SimHei-30" x="50"/><use xlink:href="#SimHei-32" x="100"/><use xlink:href="#SimHei-30" x="150"/><use xlink:href="#SimHei-2d" x="200"/><use xlink:href="#SimHei-30" x="250"/><use xlink:href="#SimHei-31" x="300"/></g></g><g id="xtick_2"><use xlink:href="#m02399579e0" x="181.899" y="252.148" style="stroke:#000;stroke-width:.8" id="line2d_2"/><g transform="matrix(.1 0 0 -.1 164.4 266.022)" id="text_2"><defs><path id="SimHei-37" d="M850 150q450 1900 1575 3775H275v450h2675v-425Q1775 2050 1400 150H850z" transform="scale(.01563)"/></defs><use xlink:href="#SimHei-32"/><use xlink:href="#SimHei-30" x="50"/><use xlink:href="#SimHei-32" x="100"/><use xlink:href="#SimHei-30" x="150"/><use xlink:href="#SimHei-2d" x="200"/><use xlink:href="#SimHei-30" x="250"/><use xlink:href="#SimHei-37" x="300"/></g></g><g id="xtick_3"><use xlink:href="#m02399579e0" x="279" y="252.148" style="stroke:#000;stroke-width:.8" id="line2d_3"/><g transform="matrix(.1 0 0 -.1 261.5 266.022)" id="text_3"><use xlink:href="#SimHei-32"/><use xlink:href="#SimHei-30" x="50"/><use xlink:href="#SimHei-32" x="100"/><use xlink:href="#SimHei-31" x="150"/><use xlink:href="#SimHei-2d" x="200"/><use xlink:href="#SimHei-30" x="250"/><use xlink:href="#SimHei-31" x="300"/></g></g><g id="xtick_4"><use xlink:href="#m02399579e0" x="374.518" y="252.148" style="stroke:#000;stroke-width:.8" id="line2d_4"/><g transform="matrix(.1 0 0 -.1 357.018 266.022)" id="text_4"><use xlink:href="#SimHei-32"/><use xlink:href="#SimHei-30" x="50"/><use xlink:href="#SimHei-32" x="100"/><use xlink:href="#SimHei-31" x="150"/><use xlink:href="#SimHei-2d" x="200"/><use xlink:href="#SimHei-30" x="250"/><use xlink:href="#SimHei-37" x="300"/></g></g><g id="xtick_5"><use xlink:href="#m02399579e0" x="471.619" y="252.148" style="stroke:#000;stroke-width:.8" id="line2d_5"/><g transform="matrix(.1 0 0 -.1 454.119 266.022)" id="text_5"><use xlink:href="#SimHei-32"/><use xlink:href="#SimHei-30" x="50"/><use xlink:href="#SimHei-32" x="100"/><use xlink:href="#SimHei-32" x="150"/><use xlink:href="#SimHei-2d" x="200"/><use xlink:href="#SimHei-30" x="250"/><use xlink:href="#SimHei-31" x="300"/></g></g><g id="xtick_6"><use xlink:href="#m02399579e0" x="567.137" y="252.148" style="stroke:#000;stroke-width:.8" id="line2d_6"/><g transform="matrix(.1 0 0 -.1 549.637 266.022)" id="text_6"><use xlink:href="#SimHei-32"/><use xlink:href="#SimHei-30" x="50"/><use xlink:href="#SimHei-32" x="100"/><use xlink:href="#SimHei-32" x="150"/><use xlink:href="#SimHei-2d" x="200"/><use xlink:href="#SimHei-30" x="250"/><use xlink:href="#SimHei-37" x="300"/></g></g><g id="xtick_7"><use xlink:href="#m02399579e0" x="664.237" y="252.148" style="stroke:#000;stroke-width:.8" id="line2d_7"/><g transform="matrix(.1 0 0 -.1 646.737 266.022)" id="text_7"><defs><path id="SimHei-33" d="m250 1225 450 75q100-325 325-538 225-212 562-200 338 13 538 275 200 263 175 600-25 338-263 525-237 188-762 263v325q525 50 762 275 238 225 213 587-25 363-325 525-300 163-638 38-337-125-537-700l-450 75q150 450 412 750 263 300 713 350t787-113q338-162 475-500 138-337 38-737t-575-700q350-150 537-450 188-300 125-788-62-487-437-787T1525 87q-475 13-825 300-350 288-450 838z" transform="scale(.01563)"/></defs><use xlink:href="#SimHei-32"/><use xlink:href="#SimHei-30" x="50"/><use xlink:href="#SimHei-32" x="100"/><use xlink:href="#SimHei-33" x="150"/><use xlink:href="#SimHei-2d" x="200"/><use xlink:href="#SimHei-30" x="250"/><use xlink:href="#SimHei-31" x="300"/></g></g><g id="xtick_8"><use xlink:href="#m02399579e0" x="759.755" y="252.148" style="stroke:#000;stroke-width:.8" id="line2d_8"/><g transform="matrix(.1 0 0 -.1 742.255 266.022)" id="text_8"><use xlink:href="#SimHei-32"/><use xlink:href="#SimHei-30" x="50"/><use xlink:href="#SimHei-32" x="100"/><use xlink:href="#SimHei-33" x="150"/><use xlink:href="#SimHei-2d" x="200"/><use xlink:href="#SimHei-30" x="250"/><use xlink:href="#SimHei-37" x="300"/></g></g><g id="xtick_9"><use xlink:href="#m02399579e0" x="856.856" y="252.148" style="stroke:#000;stroke-width:.8" id="line2d_9"/><g transform="matrix(.1 0 0 -.1 839.356 266.022)" id="text_9"><defs><path id="SimHei-34" d="M2000 1100H75v425l2025 2925h375V1525h600v-425h-600V150h-475v950zm0 425v1975L600 1525h1400z" transform="scale(.01563)"/></defs><use xlink:href="#SimHei-32"/><use xlink:href="#SimHei-30" x="50"/><use xlink:href="#SimHei-32" x="100"/><use xlink:href="#SimHei-34" x="150"/><use xlink:href="#SimHei-2d" x="200"/><use xlink:href="#SimHei-30" x="250"/><use xlink:href="#SimHei-31" x="300"/></g></g></g><g id="matplotlib.axis_2"><g id="ytick_1"><g id="line2d_10"><defs><path id="mfda4084c7d" d="M0 0h-3.5" style="stroke:#000;stroke-width:.8"/></defs><use xlink:href="#mfda4084c7d" x="45.8" y="250.513" style="stroke:#000;stroke-width:.8"/></g><g transform="matrix(.1 0 0 -.1 18.8 253.95)" id="text_10"><defs><path id="SimHei-2e" d="M1075 125H500v550h575V125z" transform="scale(.01563)"/></defs><use xlink:href="#SimHei-2d"/><use xlink:href="#SimHei-30" x="50"/><use xlink:href="#SimHei-2e" x="100"/><use xlink:href="#SimHei-32" x="150"/></g></g><g id="ytick_2"><use xlink:href="#mfda4084c7d" x="45.8" y="203.59" style="stroke:#000;stroke-width:.8" id="line2d_11"/><g transform="matrix(.1 0 0 -.1 23.8 207.027)" id="text_11"><use xlink:href="#SimHei-30"/><use xlink:href="#SimHei-2e" x="50"/><use xlink:href="#SimHei-30" x="100"/></g></g><g id="ytick_3"><use xlink:href="#mfda4084c7d" x="45.8" y="156.667" style="stroke:#000;stroke-width:.8" id="line2d_12"/><g transform="matrix(.1 0 0 -.1 23.8 160.104)" id="text_12"><use xlink:href="#SimHei-30"/><use xlink:href="#SimHei-2e" x="50"/><use xlink:href="#SimHei-32" x="100"/></g></g><g id="ytick_4"><use xlink:href="#mfda4084c7d" x="45.8" y="109.743" style="stroke:#000;stroke-width:.8" id="line2d_13"/><g transform="matrix(.1 0 0 -.1 23.8 113.18)" id="text_13"><use xlink:href="#SimHei-30"/><use xlink:href="#SimHei-2e" x="50"/><use xlink:href="#SimHei-34" x="100"/></g></g><g id="ytick_5"><use xlink:href="#mfda4084c7d" x="45.8" y="62.82" style="stroke:#000;stroke-width:.8" id="line2d_14"/><g transform="matrix(.1 0 0 -.1 23.8 66.258)" id="text_14"><defs><path id="SimHei-36" d="M250 1612q25 363 137 613 113 250 338 625l1025 1600h575L1275 2800q675 175 1075-50t537-513q138-287 150-625 13-337-100-662-112-325-400-588-287-262-800-287-512-25-875 187-362 213-500 600-137 388-112 750zm775-825q225-237 600-262t625 250q250 275 250 800t-313 725q-312 200-700 150-387-50-562-375t-150-688q25-362 250-600z" transform="scale(.01563)"/></defs><use xlink:href="#SimHei-30"/><use xlink:href="#SimHei-2e" x="50"/><use xlink:href="#SimHei-36" x="100"/></g></g></g><path d="m86.382 203.59.528.42 1.583.904.527-1.744.528 2.7.528-2.923.528.066 1.583-2.294.527.8.528 1.31.528.997.528-.328 1.583-1.73.528 4.037.527-.983.528 7.224 5.805 17.869.528-5.507.527-2.412.528-4.025h.528l1.583-.891 1.055-3.868.528 1.377 2.111-6.647.528 1.128.527.354.528-5.27.528-.276 1.583.944.528.511.528 2.871.527-.681.528 8.18 1.583-7.302 1.056-2.556.527-5.166.528 3.855 1.583 7.984.528-4.825.528 3.068.527 4.392 2.111 12.598.528 1.036.528 4.13.527 2.687.528-3.618 1.583 6.935 1.056-10.829.527 1.377.528-.682 1.583 2.045.528-.668.528.616.528-3.343.527 1.206 2.111-4.772.528.996.528-.695.527 1.338 1.583.904.528-4.077.528 1.6.528-.289.527-2.084 1.584-.774.527 2.556.528-1.756.528.537.527 1.849 1.584-1.455.527-1.482.528-1.01.528-2.595 3.166-1.311.528.616.528-2.412 2.11.196.528-.445.528 2.425.528.669 1.583-.564.527-1.888 1.056 2.36.528 5.034 1.583-.288.528-2.478.527 1.52 1.056-1.415 1.583-5.887.528-.852 1.055.027.528-1.115 1.583-1.167.528-1.415.527.249.528 2.255.528-.17 1.583 2.66.528-3.382.527-.197.528-1.625.528-3.2 1.583-.274 1.055-2.452 2.639 1.665.528-3.304 3.166-28.946.528-1.613 1.055-8.233.528 4.55 1.583-5.887.528 2.517.528 3.212.527 12.69.528-1.796 1.583-7.761.528-.616.528-1.39.527-.052.528 11.864 1.583-1.31.528-2.269.528-6.371.527 1.298.528-2.242 1.583-4.353.528-.262.528-.078.527.825.528 3.081 1.583-.97.528 2.478.528 1.927.528.656.527-4.09 1.583-6.346.528.118 1.056 7.63.527-2.347 1.583-2.137.528-.353.528 3.211.528-1.442.527-6.49 1.584 1.627.527-1.482.528-.092.528 1.547.527 2.688 1.584 5.794.527-1.455.528 6.293.528.157.527-2.57 1.584-1.284.527-2.084 1.056 2.95.528-5.808 1.583 2.543.527 3.08.528-.904.528 4.956.528-.394 1.583-.668.527-.55.528.261 4.75-5.165 1.583-7.892.528-.892.527 1.796 1.056.853 1.583 2.019.528-2.098.527.052.528.826.528 3.265 1.583 1.534.528-.472 1.055-4.104.528 4.313 1.583-1.402.528-3.16.527-2.006.528-3.985.528-.026 1.583-5.323.528 1.534.528 2.727.527-.262.528 2.87 1.583-2.621.528.524.528.17.527-2.018.528-.853 1.583-3.421.528 1.704.528 3.527.527-.472.528-3.461 1.583 1.127.528-5.926.528-.013.527.564.528-.485 2.111 3.133.528 3.736.527.132.528 3.067 1.583-2.464 1.056-1.036.528-3.527.527.984 1.583-2.583.528 4.55.528-2.334.528.406.527-2.32 1.583-1.246.528 1.193.528-3.933.528-5.427 2.11-3.12.528-5.572.528-2.714.528-5.323 2.11 4.038.528-8.587.528 1.01.528 5.951.527.682 1.584-3.343.527 4.497.528-2.15.528-4.916.527-.263 1.584-3.08.527 6.266.528-.813.528 8.351.528 1.43 1.583-3.658.527-4.602.528.878.528.643.528-.525 1.583-4.47 1.055-13.477 4.222 2.215.528-.576 1.583 10.068.528.996.527 7.893.528-1.77.528 7.354 1.583-4.522.528 3.867.527-5.703.528 9.505.528.983 1.583 10.147.528 6.03.527-1.795.528-6.883.528-.996 1.583 6.161.528-2.425.527-1.193.528-2.255.528 7.473 1.583-2.78.528 2.662.528 4.444.527.118.528-6.188 1.583-.472.528-2.648.528 2.57 1.055-6.293 2.11 1.193.529 2.032.527-.472.528 4.247 1.583 4.864.528.446.528-2.268.527 1.757.528-.957 1.583-6.686.528.196.528-.839.527.315.528-2.635 1.583 3.185.528-.734.528-1.6.528-2.49.527 2.255 3.167 3.474.527 3.605 1.583.21.528-1.704.528-1.206.528 2.87.527-6.567 1.584-4.17.527-.13.528.8.528-.8.527 2.844 1.584-1.166.527-9.06.528-.117.528-.984.527.905 1.584-.616.527-.577.528 2.766.528 1.875.528-1.639 1.583.236.527 2.57.528-.38.528-2.124.528 2.28 2.11 3.265.528 4.746.528-1.377.528-.144 1.583.682 1.055-3.225.528-.55.528-4.904 1.583-.655.528 3.238.527-2.02.528-.34.528 8.272 2.11-.301.528-3.304.528 2.819.528.813 1.583-3.619.528-.878.527 3.29.528-3.893.528 2.976 1.583-1.049.528.236.527-2.098.528-.485.528 3.5 1.583 9.23.528 9.74.527-.51.528-5.113.528 2.123 1.583-6.882.528-.04.528-2.504 1.055 3.16 1.583-3.592.528-3.238.528 1.56.527 2.36.528 1.507 1.583.197.528 5.82.528-3.211.527 1.809.528 5.1 1.583-3.96.528-2.962.528-.67.527 5.442.528-1.456 1.583.8.528.433.528-3.619.527.013.528 1.482 1.583-5.1.528-3.356.528 1.18.528.118.527-2.478 1.583 1.246.528 4.13 1.056 6.082.527-2.714 2.639 1.914.528-1.743.527.21 1.584-1.547.527-.354.528 2.766.528-1.796 4.221-3.514 1.584-.327.527 2.923.528-3.133.528 1.468.528-1.075 1.583 3.212.527-2.661.528.695.528-.984.528-1.809 1.583-1.22.527.919.528 3.618.528 1.888.528-2.478 1.583 1.023.528 2.831.527 1.05.528-2.65.528 1.47 1.583-.315.528.078.527 1.43.528-4.314.528.564 1.583.34 1.055-.183.528 2.675.528-2.924 1.583-1.232.528-.04.527-.183.528 1.127.528 2.032 1.583.485.528 1.075 1.055-1.324.528-2.504 1.583.485.528-1.599 1.055-8.587.528.983 1.583-1.573.528 1.9.528 2.452.527-1.599.528 4.444 1.583 4.156.528-1.888.528-.039.527-1.9.528 1.52 1.583.131.528-2.045.528 4.025.527-2.098.528-1.049 2.111 1.285 1.055 5.532.528-.223 1.583-1.193.528 2.57.528-2.648.528 4.418.527 2.15 1.583-2.242.528-2.543.528 1.822.528-2.4.527 2.466 1.583-.394.528 6.018.528-1.875.528 5.14.527 3.132 5.278-3.867.527 1.416.528-2.412.528.694.527 2.137 1.584 2.78.527-2.688.528-.996.528-.63.527-1.232 1.584.957.527 3.356.528-2.726.528 5.23.528-2.451 1.583-.446.527-2.11.528 2.28.528 1.508.528 3.068 1.583 8.01.527 4.85.528 2.216.528-3.71.528-.747 1.583 7.315.528 10.62.527-9.57.528-4.524.528-1.586 2.11.603.528-1.206.528 1.403.528 4.273 1.583 1.469.528.786.527-6.673.528 1.757.528-2.976 2.638.708.528 3.028.528-1.258 1.583 7.276.528-4.444.527 2.215.528-2.87.528.17 1.583 1.245.528 1.757 1.055 7.735.528-.97 1.583 11.025.528 1.73.528-6.174.527-1.416.528-5.388 3.166.34.528 5.65 1.583 1.758.528-2.386.528-3.16.527.983.528-1.651 1.583 1.77.528-2.74.528.773.527-.459.528-4.34 1.583 1.325.528 5.257.528-1.337.528-.708.527-.472 1.583-1.639.528-3.5.528.38.528-.511 2.11-4.274.528-.734.528-2.321.528 2.425.527-3.487 1.584 2.766.527-1.822.528-3.16.528 1.39.527-3.343 1.584-1.39.527.158.528 3.015.528-4.143.527-2.91 1.584-2.78.527-2.621.528 3.697.528-3.815.528 1.035 1.583-1.638.527.367.528 3.618.528-1.167.528.643 1.583 4.038.527 2.005.528-.472.528-.078.528 3.553 1.583-2.465.528 1.298.527-.813.528 2.517.528-.144 1.583 1.429.528-1.888.527 1.18.528-.079.528 3.068 1.583-1.036.528 4.602.527 2.242.528-1.94.528-3.33 1.583.485.528-.46.527 2.623.528-4.746 2.111.42.528.445.527-2.202.528 2.071.528 1.613 1.583-1.705.528 1.115.528 4.457.527-1.993 2.111 1.416.528.774.528-.17.527 1.992.528 1.14 1.583.472.528-2.084.528-.157.527.97.528-3.173 2.11-.97 1.056 4.746.528 5.349 1.583.249.528-.289 1.055 3.592.528.748 1.583 1.101.528-3.133.528 3.566.527.091.528 1.259 5.277 4.785.528-.38.528-3.186.528 1.757.527-5.074 1.583-.21.528.46.528 3.487.528 1.114.527.682 1.584 6.214.527.328.528-1.665.528 1.442.527 5.086 1.584 1.862.527-7.106.528-2.464.528 1.69.527-6.75 1.584-.446.527 1.468 1.056 3.592.528-5.82 1.583-.29.527-4.076.528 1.783 1.056 1.861 1.583 1.849.527-.013.528-.223.528.944.528-1.075 1.583 2.412.528-6.516.527-.249.528-2.373.528 1.35 2.11-5.48.528.551.528-.013.528-2.084 1.583 2.543.528.446.527-.669.528.17.528-.118 1.583 3.461.528 3.632.527-.079.528-.314.528.445 1.583-.865.528-2.687 1.055 1.77.528-.84 2.639-1.18.527-4.286.528-.682 1.583-1.822.528-.236.528.406.527-.446.528-3.185 1.583-3.593.528.04.528.393 1.055-2.884 5.277-1.088.528 2.517.528-2.203.527.84.528 2.241 1.583 3.107.528-.406.528 1.022.528-3.094.527 1.39 1.583-2.097.528-.092.528 1.219.528 1.717.527 3.33 1.583-5.585.528-.603.528 2.111.528.197.527 2.412 1.584.93.527-1.441.528-3.265.528.525.527-.708 1.584 1.219.527 3.409 1.056 1.651.527 2.976 1.584-2.333.527 1.35.528-.118.528 2.7.528-1.114 1.583 1.128.527-2.439.528-.97.528-2.228.528.681 1.583.84.527.734.528-.38.528-1.836 2.638-3.645 1.056.367.528-1.507 2.11 1.31.528.171.528 1.587.528-1.298 1.583-3.225.528-.721.527 2.123.528.643.528 4.536 2.11 3.972.528.131.528-1.652.528-2.307 3.166-.04.528.761 1.583-2.57 1.055 3.724.528.34.528 2.977 1.583-3.448 1.056 2.163.527.21.528.59 1.583-1.39 1.056 6.227.527.472.528-.079 1.583.944.528-.223.528 2.098.527-.63.528-3.133 1.583.997.528 2.032.528 1.022.527-1.756.528-1.05 1.583-.458.528-1.245.528-.236.527-3.553.528-2.203 1.583 1.626.528.315.528 3.238 2.638 3.041.528-2.137.528.08.528 1.009.527-1.469 1.583-2.897.528-.354 1.056 3.068.527.93 1.584-1.061.527-1.443.528 1.22.528-3.54.527-.118 2.111 2.098.528.183.528 1.547.527-.079 1.584.97.527-6.331.528.432.528.262.528-5.296 1.583-1.259.527.97.528 1.6.528-2.006.528-.918 2.638 3.003.528-.486.528 5.192 2.11 2.19.528 1.625.528-.734.528 2.714 1.583 3.146.528-1.652.527 3.553.528-1.547.528.669 1.583-2.544.528-2.163.527.105.528 1.311.528-1.534 1.583-3.304.528 1.652.527.485.528 3.094.528 1.062 1.583-1.586.528.406.527 1.39.528.184.528 1.39 1.583-1.089.528.42.528.839.527 1.914.528-3.828 1.583 1.415.528 1.246.528-.446.527.63 5.805.314.528 1.6.528-.604.527-2.005.528 2.254 1.583 2.124.528-.747.528 1.678.527 4.444.528 1.338 1.583 2.097.528-.747.528-1.101.527-.564.528-2.792 1.583-1.22.528.656.528.078.528.97.527-1.717 1.583-2.792.528.747.528.511.528-.105.527 1.521 1.583.42.528-.144.528-1.456.528 2.006.527.25 1.584-.46.527-.275.528 2.085.528-.97.527 1.35 1.584 1.52.527-.38.528 1.73.528-.458.527.773 1.584 1.325.527 3.801.528-.301.528.498.528-.63 2.11-1.56.528 3.304.528 1.023.528.603 1.583.708.527-.262.528 1.927.528-1.914.528-.367 1.583-.59.528 1.324.527-.669.528-4.523.528-.943 2.11 2.595.528.472.528 1.81.528 1.035 1.583 2.504.528-.367.527.892.528-1.075.528.668 1.583.197.528-1.154.527 4.156.528-2.622.528.288 1.583 2.95.528-.76.527-2.596.528-3.802.528.525 1.583 1.73.528 3.409.528 1.717.527-.131.528 2.215 1.583-1.18.528-6.423.528-1.836.527-1.232 5.805-2.202.528-.407.528-2.661.527-1.718.528-.17 1.583 2.11.528-2.385.528 2.556.527-3.776.528-1.258 1.583-.157.528-1.416.528.826.528 1.232 2.11-3.409.528-.472.528 1.442.528.59.527-.445 1.583-1.914h.528" clip-path="url(#p821f250437)" style="fill:none;stroke:gray;stroke-linecap:square" id="line2d_15"/><path d="m86.382 203.59.528-.42 1.583-.904.527 1.743.528-2.7.528 2.923.528-.065 1.583 2.294.527-.8.528-1.31.528-.997.528.328 1.583 1.73.528-4.038.527.983.528-7.223 5.805-17.869.528 5.506.527 2.412.528 4.025h.528l1.583.892 1.055 3.867.528-1.376 2.111 6.646.528-1.127.527-.354.528 5.27.528.275 1.583-.944.528-.51.528-2.872.527.682.528-8.18 1.583 7.301 1.056 2.557.527 5.165.528-3.854 1.583-7.984.528 4.824.528-3.067.527-4.392 2.111-12.599.528-1.036.528-4.13.527-2.687.528 3.619 1.583-6.936 1.056 10.83.527-1.377.528.681 1.583-2.045.528.669.528-.616.528 3.343.527-1.206 2.111 4.772.528-.997.528.695.527-1.337 1.583-.905.528 4.078.528-1.6.528.289.527 2.084 1.584.773.527-2.556.528 1.757.528-.538.527-1.848 1.584 1.455.527 1.481.528 1.01.528 2.596 3.694-.764.528.27 1.583 1.73 1.055-3.7.528-.326.528-.458 1.583-2.51.527-.211.528 1.821.528-2.273.528.948 1.583.085.528-1.23.527.803.528 1.088.528-.08 1.583-1.196.528 3.15.527.121.528-5.062.528-.025 1.583.967.528-.883.527-1.358.528-2.75.528.692 1.583-.774.528-3.286.527.869 1.056-5.487 1.583-1.31.528.67.527-.013 2.639.686.528-1.827 1.055 3.8.528.22 1.583.284 1.056-10.753.527-4.268.528-.805 1.583-4.218.528 1.412.528 6.07.527 3.914.528-.383 1.583-3.245.528.564.528.095.527-.469.528 3.558 1.583-2.023.528-.017.528-3.317.527-1.153.528-2.16 1.583-1.796.528 1.346.528-2.085.527 2.13.528.678 1.583 1.35.528.779.528-.653.528-.425.527-.06 1.583 1.203.528-1.152.528-.424.528-.268.527 1.694 1.583-.346.528 2.024 1.056.896.527 1.339 1.584 1.045.527-.906.528-.626 1.055 1.962 1.584 2.84.527.26.528 3.722.528.963.527-1.798 1.584-1.149.527 1.104.528.078.528 2.019.528.06 1.583.88.527 1.89.528.494.528 2.922.528-.134 1.583.106.527.202.528-.064 4.75-8.432 1.583-4.507 1.055-.014.528 1.836.528 2.887 1.583 2.79.528-1.24.527 2.276.528 1.562.528 2.888 1.583-.15.528 2.036.527 1.568.528-.542.528-.704 1.583.165.528.28.527-.861.528.438.528.986 2.639 1.368 1.055-1.619 1.583-.62 1.056 1.858.527 1.384.528-2.576 1.583.083.528-1.252.528.675.527.42.528.76 1.583 1.341.528-1.971.528 1.1.527.276.528 2.937 1.583.34.528-.492.528.945.527-.12.528.796 1.583-5.038.528-3.373.528-2.116.528 2.081.527-3.81 1.583-9.196.528 3.045.528-1.822.528 1.356.527-3.904 1.583 3.647.528-.767.528-3.109.528-.035 2.11-1.333.528-1.714.528.894.528 1.148.527-1.026 1.584-.926.527-1.52.528 1.585.528-.849.527.518 1.584-4.035.527 1.123.528.046.528.787.527 2.112 1.584 3.535.527 3.115.528-3.102.528 4.51.528 2.492 1.583 3.38.527-2.357.528-.097.528.852.528 1.776 2.11-.6.528-1.726 4.222.458.528 1.67 2.11 2.154 1.056 4.097.528-1.055 1.583 3.358.528.253 1.055-8.035.528 1.506 1.583-5.325.528-.506.527 3.607 1.056-1.757 1.583-7.971.528-1.425.527 6.055 1.056 3.314 1.583-1.849.528 1.957.528.976.527 1.435.528.825 1.583.097.528.921.528-1.632.527 1.797.528 2.194 2.11-.748.529-2.8.527-4.274.528-2.44 1.583-1.337.528-.686.528.155 1.055-3.273 1.583 5.119.528.25.528 1.335.527-1.702.528 4.001 1.583-1.855.528.983.528-.592.528 1.908.527-1.17 3.167-1.149.527.358 1.583-2.747.528 4.104.528 1.462.528 2.568.527.634 1.584 3.061.527-1.448.528-.031.528 3.305.527-2.611 1.584-1.557.527-3.18.528.252.528-.879.527-.604 1.584-.518.527 3.605.528 1.814 1.056-.723 1.583 3.268.527-.696.528-.328.528-1.523.528-2.877 2.11-2.491.528 4.29.528-5.309.528-6.919 1.583-5.343.528 2.015.527-6.243.528.666.528 3.17 1.583-3.28.528-1.353.527-3.283.528 5.558.528-1.24 1.583-2.198.528 2.382.527-5.857.528-3.473.528-.533 1.583-1.365.528 3.23.527 2.013.528 3.016.528-9.328 1.583 1.187.528-.686.527-2.988.528-1.026.528-.566 1.583-3.514.528-3.007.527 3.59 1.056-6.376 1.583 1.355.528 12.313.528-10.854.527-.303.528-5.627 1.583 3.904.528-1.182.528-.778.527.848.528 3.866 1.583 1.071.528 2.22.528-.187.527-3.043.528-4.533 1.583-.092.528-1.241.528.749.527-2.493.528.76 1.583-2.656.528-4.78.528 1.095.527-6.308.528 1.012 1.583-1.839.528-4.795.528-2.241.528-.334.527.232 1.583-3.918.528 4.343.528-3.044.528 4.402.527.962 3.167-5.348.527 5.86 1.584 14.259.527-7.695.528 4.608.528-1.942 4.221.308 1.584-2.866.527-.647.528 10.412.528 2.997.528-2.006 1.583-.402.527-.59 1.056.422.528.541 1.583-1.201.527 1.59.528-.595.528.71.528-2.9 1.583 5.083.528-5.258.527 5.934.528-3.972.528 4.085 1.583-3.983.528-4.676.527 1.669.528 2.302.528-4.873 1.583.634.528 6.778 1.055-7.353.528-.754 1.583-3.422.528 1.092.527 1.672.528.702.528.504 1.583-3.925.528-.231.527 3.21.528.87.528 1.246 1.583 1.45.528 6.42.528-.64.527 3.99.528 1.615 2.11-1.788.529-.232.527-.779.528 1.089 1.583 5.04.528-3.535.528-8.943.527-1.491.528-2.554 1.583.865.528 1.206.528-.487.527-.73.528-1.85 2.111 2.408.528 14.192.527 1.616.528 4.382 1.583-.29.528-.788.528 2.493.528-2.066.527 3.283 1.583 2.616 1.584-12.3.527-.637 1.583 1.064.528 4.435.528-1.503.528.268.527.516 5.278-2.934.527-4.554.528.895 1.055-5.935 1.584 4.137.527 7.19.528-1.167.528.682.527-4.833 1.584-.944.527-3.353.528 3.164.528-1.698.528 3.15 1.583-5.613.527-2.347.528-9.749.528-11.947.528.362 1.583-2.54.527 6.158.528 4.113.528-.36.528-1.542 1.583 3.227.528 4.98.527-3.952.528-1.99.528-.95 1.583-1.515.528 7.454.527-3.417.528-6.177.528 6.31 1.583-1.825.528-3.038.527 5.76.528-2.262.528 6.017 2.638-4.632.528 1.274 2.111-4.142.528 4.79.527-3.427.528-1.844.528 2.425 1.583 4.254.528-5.001.528 3.968.527.71.528-2.266 1.583 5.35.528 4.31.528-2.222.527-4.898.528.57 3.166-1.588.528 1.378 1.583-3.196.528 1.217.528-2.778.527-4.495.528 3.382 1.583 4.117.528 4.76.528 1.002.527.233.528-1.404 1.583-1.808.528 5.717.528-.611.528-2.788.527 1.978 1.583-1.14.528-1.162.528-2.48.528-5.146 2.11-4.375.528-.798.528-11.828.528-4.857.527-2.997 1.584 2.402.527-3.394.528 3.089.528 4.82.527.149 1.584-1.512.527.724.528.943.528-5.825.527-1.711 1.584 1.511.527-1.457.528 4.825.528-.822.528 1.085 1.583.826.527-.568.528 2.296.528 1.596.528-.662 1.583 2.87.527 4.732.528-3.643.528-5.603.528 2.93 1.583-.744.528.464.527-.246.528.762.528-.048 1.583 4.602 1.055-.531.528-9.271 2.11-.162.529 1.761 1.055 2.14.528 1.98 1.583-3.267 1.055.65.528.869.528 2.084 2.11-2.91.528 1.587.528-.542.528 3.176 1.583-1.112.528-2.82.528 6.825.527 4.767.528 2.438 1.583-2.046.528-.157.528 1.407.527-4.343.528-.218 1.583-5.41.528-4.13.528.566.527-.487.528-4.162 2.11 1.56.529-3.702.527 1.123.528-.308 1.583-.01.528 3.875.528-3.779 1.055-.898 1.583 7.146.528-1.006.528 7.562.527.353.528 5.276 5.277.854.528 1.857.528 2.593.528-1.014.527-8.04 1.583-2.528.528-2.342 1.056-.477.527-1.222 1.584-6.306.527-.089 1.056-1.672.527 2.654 1.584-6.53.527 5.936.528 2.844.528-2.816.527 3.98 1.584 1.836.527-1.524.528-1.044.528.774.528 3.2 1.583-5.644.527.981.528 4.331.528-1.823.528 1.928 1.583.216.527 2.496.528.634.528-6.144.528-12.472 1.583 2.96.528-10.418.527 2.515.528 4.22.528 1.942 2.11-4.608.528 1.694.528-.134.528-1.995 1.583 1.717.528-3.147.527-2.468.528 1.883.528-2.343 1.583.377.528 5.332.527-.177.528-.641.528.044 1.583 3.089.528-.95.527-1.476.528 2.336.528-.72 2.11-.456.529-6.073.527 4.288.528 1.333 1.583.01.528 2.649.528-2.368.527.315.528-.988 1.583-3.459.528 2.017.528.488.527-2.163.528 1.514 5.277-.475.528 2.34.528-4.02.527 2.528.528-.303 1.583-.41.528-.372.528 1.603.528-1.947 2.11-1.169.528.156.528-3.211 1.055 8.145 1.583-2.372.528-.373.528-.023.528 1.1.527-.218 1.584 1 .527-1.427 1.056 1.25.527.202 1.584.267.527 1.102.528-.835.528.333.527 1.693 1.584-3.286 1.055.773.528 3.983.528-4.045 1.583-1.626.527-.733.528-5.163.528-3.785.528-2.23 1.583-1.1 1.055 2.705.528.34 2.11-9.052.528-.742 1.056-1.159.528-6.012 1.583 7.092.528-.056.527-3.418.528 6.21.528-7.626 1.583 4.621.528.966.527-1.069.528-4.108.528 6.73 2.11 5.74.528 5.682.528-1.274.528-3.388 3.166-8.3.528-4.917 1.583-8.664.528 1.499.527 8.251.528.398.528 1.308 1.583-2.64.528 1.92.528.547.527.82.528 5.097 1.583 3.668.528 2.392.528-.152.527-1.948.528.451 1.583.747.528-.458.528 2.027.527-1.297.528-3.009 1.583-2.551.528 4.485.528-1.799.527 3.278.528-2.41 1.583 4.473.528.063.528 4.741.527 1.587.528 2.829 1.583.21.528-1.165 3.166 7.218.528-2.439.528 3.752 1.055-11.513 1.583.547.528-.043.528 2.223.528 1.046.527 1.947 1.584 1.1.527-4.497.528 8.583.528-3.074.527-2.16 1.584-.924.527-3.019.528 2.387.528 3.23.527.9 1.584.51.527-3.257.528-.283.528-3.19.528-5.557 1.583-2.988.527 1.608.528.566.528-3.54.528 1.283 1.583.588.527 1.32.528.582.528-2.978.528 5.249 1.583 2.555.528-3.617.527-2.247.528 2.553.528-.279 1.583 7.96.528-2.737.527 4.372.528-1.6.528-3.45 1.583-5.602.528 4.585.527 9.474.528 5.053.528 1.082 1.583-1.813.528 3.177.527-2.17 1.056-1.93 1.583 1.612.528.272.527-.81.528-2.82.528-.083 1.583.496 1.056-3.54.527.388.528-.152 1.583-3.788.528.542.528-2.472.527.645 5.805-5.358.528 3.535.528-6.073.527-.316.528-2.784 1.583.895.528.515 1.055 2.244.528 1.88 1.583-.388.528-1.66.528-4.728.527-1.555.528-5.74 1.583-1.67.528-1.009.528-4.634.528 2.918.527-.935 1.583-5.578.528.75.528-5.102.528 4.611.527-1.978 2.111-3.558.528 2.25.528-1.412.527-2.762 1.584-3.227 1.055 4 .528-1.575.527 2.95 1.584-1.134.527-1.383.528.462.528 1.25.527-2.328 1.584-.463.527 3.378.528-.797.528.503.528.827 1.583-.738.527-1.477.528 3.494.528.732.528.208 1.583-.456.527-.294.528.572 1.056-1.467 1.583-.215 1.055.09.528-3.714.528-.28 2.11 2.31.528-1.553 1.056 7.16 2.11 5.545.528 1.896.528-.82.528-1.319 1.583-.878.528 1.456.527 4.205.528.293.528.015 1.583-2.261.528 1.043.527-2.13.528-1.259.528-5.455 1.583-4.504.528-.17.528-1.958.527 2.248.528-2.486 1.583-2.698.528 2.169.528 4.232.527 2.99 5.805-2.444.528-2.28.528-5.612.527.955.528-.647 2.111 6.15.528-.439.527.038.528 1.89 1.583 2.415.528 3.263.528-.344.528 2.922.527-.948 1.583 2.88.528 2.535.528 1.479.528-.07.527-1.542 1.583-2.749h.528" clip-path="url(#p821f250437)" style="fill:none;stroke:orange;stroke-linecap:square" id="line2d_16"/><path d="M86.382 203.59h62.799l3.166-1.972.528.513.528-2.142 1.583 1.927 1.055-4.145.528 2.099.528.21 1.583-3.074.527-2.099.528 2.975.528-1.066.528 5.982 1.583-.204.528-3.707.527 2.323.528.42.528-.828 1.583-7.083.528 2.3.527.08.528-4.996.528-1.14 1.583-.2.528-2.298.527-1.11.528-.493.528.52 1.583 1.888.528-6.669.527.672.528-4.528.528-5.783 2.11-2.042.528-1.338 2.639 2.351.528-5.13 1.055-6.033 2.111-18.61.528-7.518 1.055-17.35.528 3.746 1.583-10.105.528 3.93.528 9.28.527 16.606.528-2.18 1.583-11.006.528-.052.528-1.294.527-.522.528 15.422 1.583-3.333.528-2.285.528-9.69.527.146.528-4.402 1.583-6.148.528 1.084.528-2.165.527 2.956.528 3.76 1.583.378.528 3.258.528 1.275.528.23.527-4.15 1.583-5.143.528-1.033 1.056 6.937.527-.653 1.583-2.482.528 1.67.528 3.593.528-.928.527-5.15 1.584 2.67.527-2.387.528-.717.528 2.572.527 3.624 1.584 8.635.527-1.195.528 10.014.528 1.121.527-4.368 2.111-3.414.528 1.677.528 3.37.528-5.748 1.583 3.424.527 4.97.528-.41.528 7.877.528-.528 1.583-.562.527-.348.528.198 4.75-13.598 1.583-12.399.528-.935.527 1.826.528 2.294.528 3.28 1.583 4.81.528-3.338 1.055 4.717.528 6.152 1.583 1.384.528 1.563.527-.541.528-2.535.528 3.608 1.583-1.237 1.055-5.747.528-3.547.528.96 1.583-4.478.528 1.802.528 2.982.527-1.078.528 2.068 1.583-3.243.528 1.442.528 1.112.527-.636.528-3.427 1.583-3.339.528.453.528 4.2.527-.051.528-2.701 1.583 2.468.528-7.897 1.055 1.927.528 2.452 1.583 2.778.528.203.528 4.682.527.01.528 3.864 1.583-7.502.528-3.937.528-2.588.528-1.445.527-2.827 1.583-11.779.528 7.595.528-4.156.528 1.762.527-6.224 1.583 2.401.528.426.528-7.041.528-5.463 2.11-4.453.528-7.286.528-1.82.528-4.175.527-.016 1.584 2.103.527-10.108.528 2.595.528 5.103.527 1.2 1.584-7.379.527 5.62.528-2.104.528-4.13.527 1.85 1.584.455.527 9.381.528-3.915.528 12.862.528 3.92 1.583-.277.527-6.959.528.782 1.056 2.746 1.583-4.967.527-6.842.528-8.465 4.222 2.674.528 1.093 1.583 11.684.528 1.534.527 9.787.528.433.528 6.3 1.583-1.165.528 4.12.527-9.75.528 5.518.528 2.488 1.583 4.822.528 5.525.527 1.81.528-7.7.528-1.935 1.583-1.81.528-3.85.527 4.862.528-.718.528 9.25 1.583-4.628 1.056 10.038.527 1.553.528-5.363 1.583-.375.528-1.726.528.936.527-1.676.528-.625 2.11.445.529-.768.527-4.746.528 1.808 1.583 3.527.528-.241.528-2.113.527-.064.528-2.41 1.583-1.567 1.056.943.527-1.387.528 1.366 1.583 1.331.528.249.528-2.192.528-.582.527 1.084 3.167 2.326.527 3.963 1.583-2.538.528 2.4.528.256.528 5.44.527-5.935 1.584-1.108.527-1.579.528.768.528 2.505.527.234 1.584-2.723.527-12.238.528.133.528-1.862.527.3 1.584-1.134.527 3.028.528 4.58.528 1.46.528-1.946 1.583 3.503.527 1.874.528-.708.528-3.647.528-.596 2.11.773.528 9.037 1.056-13.75 1.583-4.66.528.231.527-7.685.528.116.528-1.734 1.583-3.935.528 1.885.527-5.302.528 5.218.528 7.032 1.583-2.447.528 2.329.527-9.16.528-.655.528.28 1.583-4.983.528 2.35.527 5.305.528-.877.528-6.353 1.583.138.528-.45.527-5.086.528-1.51.528 2.934 1.583 5.715.528 6.734.527 3.078.528-8.443.528-.921 1.583-5.528.528 12.274.528-13.358.527 1.387.528-4.157 1.583.311.528-4.42.528.782.527 3.208.528 5.373 1.583 1.268.528 8.04.528-3.398.527-1.234.528.566 1.583-4.05.528-4.205.528.081.527 2.948.528-.696 1.583-1.856.528-4.348.528-2.522.527-6.295.528 2.493 1.583-6.938.528-8.152.528-1.06.528-.217.527-2.245 1.583-2.673.528 8.472.528-.264.528 7.705.527-1.752 2.639-2.587.528-2.59.527 6.07 1.584 12.711.527-8.048.528 7.374.528-3.738 4.221-3.205 1.584-3.194.527 2.276.528 7.279.528 4.465.528-3.08 1.583 2.81.527-3.253.528.883.528-.749.528-1.268 1.583-2.42 1.055 5.532.528 2.597.528-5.377 1.583 6.105.528-2.426.527 6.983.528-6.621.528 5.554 1.583-4.298.528-4.597.527 3.097.528-2.01.528-4.31 1.583.975.528 6.738.527-4.16.528-.662.528-3.677 1.583-4.655.528 1.053.527 1.488.528 1.83.528 2.536 1.583-3.44.528.844.527 2.554.528.202.528-1.258 1.583 1.935.528 4.82.528-4.744.527-.492.528 2.598 1.583-3.012.528 1.55.528 2.22.527-2.378.528 5.533 1.583 9.197.528-5.424.528-8.982.527-3.392.528-1.033 1.583.996.528-.839.528 3.538 1.055-5.727 2.111 3.693.528 16.945 1.055 8.555 1.583-1.483.528 1.781.528-.155.528 2.352.527 5.433 1.583.375.528-6.803.528-1.911.528-6.706.527 1.827 1.583.67.528 10.453.528-3.377.528 5.406.527 3.65 5.278-6.801.527-3.14.528-1.516.528-1.995.527-1.109 1.584 6.917.527 4.503.528-2.164.528.053.527-6.066 2.111.017.528.437.528 3.533.528.698 1.583-6.058.527-4.458.528-7.468.528-10.44.528 3.43 1.583 5.471.527 11.008.528 6.329.528-4.071.528-2.29 1.583 10.544.528 15.6.527-13.523.528-6.514.528-2.535 1.583-1.097.528 7.638 1.055-9.397.528 10.584 1.583-.357.528-2.251.527-.914.528-.504.528 3.04 2.638-3.924.528 4.303.528-2.299 1.583 4.174.528.345.527-1.21.528-4.715.528 2.595 1.583 5.5.528-3.245.528 7.52.527 4.893.528-3.236 2.11 22.415.529-8.396.527-6.314.528-4.818 3.166-1.247.528 7.028 1.583-1.44.528-1.168.528-5.937.527-3.512.528 1.73 2.639 9.682.527-.226.528-5.743 1.583-.484.528 10.974.528-1.948.528-3.496.527 1.506 1.583-2.778.528-4.663.528-2.1.528-5.657 2.11-8.65.528-1.531.528-14.148.528-2.432.527-6.485 1.584 5.168.527-5.216.528-.07.528 6.21.527-3.195 1.584-2.902.527.882.528 3.958.528-9.968.527-4.621 1.584-1.268.527-4.079.528 8.522.528-4.638.528 2.122 2.11-1.014.528 5.914.528.43.528-.02 1.583 6.908.527 6.738.528-4.115.528-5.682.528 6.483 1.583-3.21.528 1.763.527-1.06.528 3.28.528-.192 1.583 6.031.528-2.194.527.955.528-9.35.528 3.018 1.583-1.148.528 6.363.527 3.215.528-.773.528-1.35 1.583-2.782.528-.105.527 2.919.528-3.878.528 2.202 1.583-1.978.528-.185.527-.615.528 1.53.528 4.788 1.583-2.816.528-1.706.528 11.283 1.055 5.591 1.583-1.01.528.617.528 1.237.527-2.351.528.922 1.583-4.938.528-6.215 1.055.893.528-7.335 2.11.59.529-1.119.527 3.286.528 5.041 1.583.24.528 3.586.528-2.14.527 1.557.528.245 1.583 8.248.528-4.14.528 11.128.527.445.528 6.534 5.277 5.64.528 1.476.528-.593.528.744.527-13.115 1.583-2.737.528-1.884.528 3.278.528.847.527-.54 1.584-.092.527.24.528-2.544.528.648.527 7.74 1.584-4.668.527-1.17.528.38.528-1.125.527-2.77 1.584 1.389.527-.056.528.936.528 2.386.528-2.62 1.583-5.933.527-3.096.528 6.114.528-.919.528 2.886 1.583 2.064.527 2.483.528.411.528-5.2.528-13.547 1.583 5.372.528-16.934 1.055 4.113.528 3.293 2.11-10.088.528 2.245.528-.147.528-4.08 1.583 4.26 1.055-5.838.528 2.054.528-2.461 1.583 3.837.528 8.964.527-.256.528-.956.528.49 1.583 2.224.528-3.637.527-.532.528 3.162.528-1.56 2.11-1.36.529-6.348.527.001.528.652 1.583-1.813.528 2.413.528-1.962.527-.13.528-4.174 1.583-7.05.528 2.055.528.881.527-3.604.528.071 5.277-1.563.528 4.857.528-6.222.527 3.366.528 1.94 1.583 2.697.528-.78.528 2.627.528-5.041.527 1.125 1.583-3.002.528.064.528-1.992.528 5.856.527 7.337 1.583-7.957.528-.977.528 2.088.528 1.297.527 2.194 1.584 1.93 1.055-5.466.528 1.107.527-.505 1.584 1.486.527 4.511.528.004.528 1.146.527 4.669 1.584-5.62.527 1.748.528.257.528 6.684.528-5.159 1.583-.499.527-3.172 1.056-12.146.528-1.548 1.583-.26.527 2.052.528 1.005.528-1.495 2.11-11.975.528-1.463 1.056-.792.528-7.52 1.583 8.14.528.207.527-3.248.528 7.797.528-8.924 1.583 1.396.528.244.527 1.056.528-3.466.528 11.266 2.11 9.712.528 5.813.528-2.926.528-5.695 3.166-8.34.528-4.155 1.583-11.234.528 3.452.527 10.021.528.74.528 4.282 1.583-6.086.528 3.06.528 1.569.527 1.03.528 5.687 1.583 2.278.528 5.552.528 2.915.527-1.475.528.372 1.583 1.69.528-.68.528 4.125.527-1.927.528-6.142 1.583-1.555.528 6.517.528-.776.527 1.52.528-3.458 1.583 4.014.528-1.182.528 4.505.527-1.966 2.111 2.462.528-.85.528 4.418 2.638 9.08.528-4.576.528 3.83.528-5.328.527-6.644 1.583-2.35.528-.397.528 3.861 1.055 5.354 1.584.038.527-5.939.528 9.802.528-6.614.527-2.279 1.584.611.527-2.455.528 2.57.528 4.778.527.82 1.584 1.48.527-9.589.528.15.528-2.927.528-10.854 1.583-4.247 1.055 4.744.528-5.545.528.365 1.583 2.358.527 1.923.528 1.21.528-3.462.528 10.44 1.583 4.208.528-3.08.527-.621.528 1.818.528 2.435 1.583 11.106.528-4.389.527 7.926 1.056-5.929 1.583-8.146.528 2.423.527 9.578.528 6.365.528-.453 1.583-5.117.528 4.83.527-1.684.528 2.19 2.111.06 1.055 1.259.528-2.637.528 1.306 1.583-.592.528-1.538.528-.742.527 2.3.528-3.979 1.583-2.373.528 1.788.528-2.918.527 1.275 5.805-5.044.528 5.135.528-6.676.527-2.322.528-.53 1.583 3.02.528-.233.528 2.916.527 5.45.528 3.218 1.583 1.709.528-2.407.528-5.829.527-2.12.528-8.532 1.583-2.89.528-.351.528-4.556.528 3.887 2.11-11.022.528 1.497.528-4.59.528 4.506.527-.458 1.583-2.152.528-1.13.528.795.528.593.527-2.512 1.584-3.686.527 1.562.528 4.247.528-2.545.527 4.3 1.584.387.527-1.764.528 2.193.528.792.527-1.555 1.584.861.527 7.18.528-1.099.528 1.001.528.198 1.583-1.878.527-1.897.528 6.797.528 1.755.528.812 1.583.252.527-.557.528 2.499.528-2.698.528-1.05 1.583-.805.528 1.387.527-.64.528-8.238.528-1.224 2.11 4.906.528-1.081 1.056 10.005 1.583 6.7.528.981.527 2.787.528-1.894.528-.65 1.583-.682.528.302.527 8.361.528-2.329.528.304 2.11.971 1.584-14.717 1.583-2.774.528 3.24.528-.242.527 2.117.528-.27 1.583-3.878.528-4.255.528 2.397.527 1.757 5.805-4.646.528-2.686.528-8.274 1.055-1.58 1.583 6.64.528-.765.528 2.117.527-3.737.528.631 1.583 2.257.528 1.848.528.482.528 4.154.527-1.814 1.583.337.528 2.064.528 2.92.528.52.527-1.987 1.583-4.663h.528" clip-path="url(#p821f250437)" style="fill:none;stroke:red;stroke-width:2;stroke-linecap:square" id="line2d_17"/><path d="M45.8 252.148V30.388" style="fill:none;stroke:#000;stroke-width:.8;stroke-linejoin:miter;stroke-linecap:square" id="patch_3"/><path d="M938.6 252.148V30.388" style="fill:none;stroke:#000;stroke-width:.8;stroke-linejoin:miter;stroke-linecap:square" id="patch_4"/><path d="M45.8 252.148h892.8" style="fill:none;stroke:#000;stroke-width:.8;stroke-linejoin:miter;stroke-linecap:square" id="patch_5"/><path d="M45.8 30.387h892.8" style="fill:none;stroke:#000;stroke-width:.8;stroke-linejoin:miter;stroke-linecap:square" id="patch_6"/><g transform="matrix(.2 0 0 -.2 7.2 24.387)" id="text_15"><defs><path id="SimHei-7d2f" d="M5475 5000q-25-400-25-1025t25-1025h-800q175-175 400-350-275-75-838-325-562-250-975-438-412-187-862-412 1450 100 2250 150-225 150-450 275 175 150 300 325 625-375 1400-875-150-175-325-400-200 175-475 350-850-75-1625-125V50q0-400-263-512-262-113-612-138-25 225-225 550 425-25 525 25t100 150v950q-600-25-1013-63-412-37-1137-137-75 250-150 475 450 50 875 162 425 113 1450 613-1250-100-1775-200-50 275-150 450 225 0 637 162 413 163 738 413H950q25 425 25 1025 0 625-25 1025h4525zM2425 525q-225-125-663-388-437-262-912-562Q700-225 500-25q350 150 750 387 400 238 775 538 125-175 400-375zm550 3575v550H1450v-550h1525zm2000 0v550H3450v-550h1525zM4275 850q475-200 775-350l800-400q-175-225-275-475-425 275-800 475t-725 350q150 225 225 400zM2975 3275v475H1450v-475h1525zm2000 0v475H3450v-475h1525zm-1275-800q500 225 875 475H3225q-325-200-925-525 775 25 1400 50z" transform="scale(.01563)"/><path id="SimHei-8ba1" d="M3925 3100v1250q0 500-25 775h525q-25-325-25-575V3100h1025q300 0 650 25v-475q-375 25-625 25H4400V175q0-300 25-725h-525q25 425 25 700v2525h-975q-375 0-750-25v475q375-25 700-25h1025zm-2150 50q-25-475-25-1000V625q425 425 675 775 150-200 350-400l-700-700q-325-325-625-650-175 225-325 400 175 200 150 600v2075q-675 0-1000-25v475q400-25 550-25h950zm-625 1900q325-325 1025-1050-225-200-425-375-325 475-975 1125 175 125 375 300z" transform="scale(.01563)"/><path id="SimHei-6536" d="M4250 5050q-125-200-500-1000h1400q525 0 975 25v-475q-450 25-825 25-75-1000-275-1650T4575 900q325-400 712-625 388-225 913-350-300-200-400-475-500 200-850 450t-675 625Q3800 0 2775-625q-125 200-475 400 975 375 1650 1150-175 400-338 862-162 463-362 1213-275-550-425-725-175 125-400 250 350 500 712 1312 363 813 488 1413 300-125 625-200zM975 4275q-50-325-50-825V1575l850 150v2700q0 350-25 725h500q-25-300-25-700V300q0-350 25-850h-500q25 525 25 900v1000Q625 1050 500 925q-125 200-275 425 225 125 225 450v1775q0 350-25 700h550zm2750-1125q75-450 237-938 163-487 338-837 425 775 525 2250H3575q-175-350-275-525l425 50z" transform="scale(.01563)"/><path id="SimHei-76ca" d="M2825 2925q-400-150-813-438-412-287-787-512h4050q-25-400-25-975V-50q550 0 925 25v-500q-450 25-925 25H1325q-625 0-1075-25v500q350-25 925-25v1100q0 525-25 875-150-125-350-225-150 250-375 425 375 150 887 475 513 325 1013 800 225-250 500-475zm1900 2125q-150-150-263-413-112-262-287-562h450q725 0 1275 25v-475q-550 25-1275 25H1975q-625 0-1425-25v475q625-25 1425-25h1700q100 225 212 550 113 325 238 625l600-200zM3600-50v1625h-800V-50h800zm1200 0v1625h-775V-50h775zm-2425 0v1625h-750V-50h750zm1525 3400q475-200 1000-425t1000-425q-200-200-350-500-525 300-1038 537-512 238-887 363 125 175 275 450zM2150 5250q225-325 500-900-225-75-500-225-200 525-475 900 200 75 475 225z" transform="scale(.01563)"/><path id="SimHei-7387" d="M3325 5150q100-250 225-625h1250q450 0 1000 25v-425q-550 50-1025 50H2800q175-125 500-275-225-150-425-363-200-212-400-412h800q300 300 500 650 225-175 500-350-325-175-675-550t-975-875l1225 100q-125 150-250 325 150 50 400 225 250-300 700-950-225-75-475-250-50 150-200 325-325-25-600-25v-700h1725q525 0 950 25V650q-400 25-975 25H3425V175q0-475 25-800h-550q25 325 25 800v500H1325q-500 0-1000-25v425q500-25 1025-25h1575v650q-225-25-450-63-225-37-450-112-75 250-175 475 225 25 475 200t650 600q-675-75-950-175-50 250-175 550 225 0 475 312 250 313 425 688H1700q-550 0-1050-50v425q500-25 900-25h1425q-75 300-175 500 225 50 525 125zM1625 2575q100-175 200-375-250-150-500-338-250-187-525-437-175 250-325 450 325 150 625 337 300 188 525 363zm3225 75q275-175 487-313 213-137 538-387-200-150-375-350-200 175-438 375-237 200-487 350 150 150 275 325zm875 875q-175-75-425-263-250-187-500-437-175 225-325 350 225 150 400 312 175 163 425 438 225-225 425-400zm-4675 325q375-250 725-575-200-175-350-350-350 375-750 600 200 175 375 325z" transform="scale(.01563)"/><path id="SimHei-ff1a" d="M1200 2425h825v-825h-825v825zm0-1600h825V0h-825v825z" transform="scale(.01563)"/><path id="SimHei-35" d="M550 1325q175-675 600-750t687 87q263 163 375 425 113 263 100 588-12 325-175 550-162 225-412 300t-563 0q-312-75-512-350l-425 50q50 150 475 2150h1975v-450H1075q-125-675-250-1075 375 175 700 162 325-12 625-150 300-137 437-375 138-237 200-475 63-237 50-512-12-275-112-563-100-287-300-475-200-187-488-300-287-112-662-87T562 350q-337 250-462 850l450 125z" transform="scale(.01563)"/><path id="SimHei-25" d="M1400 3325q0-725-213-925-212-200-412-200t-413 200q-212 200-212 925t212 925q213 200 413 200t412-200q213-200 213-925zm1225 1050L700 75l-200 75 1925 4300 200-75zm350-3175q0-725-213-925-212-200-412-200t-413 200q-212 200-212 925t212 925q213 200 413 200t412-200q213-200 213-925zM1000 3325q0 450-50 600t-175 150q-125 0-175-150t-50-600q0-450 50-600t175-150q125 0 175 150t50 600zm1575-2125q0 450-50 600t-175 150q-125 0-175-150t-50-600q0-450 50-600t175-150q125 0 175 150t50 600z" transform="scale(.01563)"/><path id="SimHei-7c" d="M1825-850h-500v6350h500V-850z" transform="scale(.01563)"/><path id="SimHei-6700" d="M475 275q200 25 625 75v2100q-325 0-675-25v425q350-25 700-25h3900q450 0 875 25v-425q-425 25-875 25H3050V675l350 100q0-225 25-375-200-50-375-75 0-450 25-875h-475q25 425 25 800-275-50-813-163Q1275-25 650-175q-75 275-175 450zm4625 4650q-25-325-25-600v-450q0-275 25-625H1275q25 350 25 625v450q0 275-25 600h3825zM3300 2050q450-25 825-25h1250Q5100 975 4725 400 5350 0 5925-100q-225-175-275-400-625 200-1175 650-325-350-875-725-100 150-350 300 525 175 900 625-425 425-650 1325h-200v375zm1300 2200v350H1750v-350h2850zm0-675v325H1750v-325h2850zm-700-1900q100-600 500-1050 300 425 450 1050h-950zm-1275-425v425H1525v-425h1100zm0-675v350H1525V425l1100 150zm0 1450v425H1525v-425h1100z" transform="scale(.01563)"/><path id="SimHei-5927" d="M2900 3400q25 875 12 1175-12 300-37 575 300-50 675-75-75-250-113-725-37-475-37-950h1275q675 0 1250 50v-550q-500 25-1025 25H3425q100-425 350-863 250-437 512-775 263-337 725-712 463-375 1013-625-200-150-400-500-450 250-888 625-437 375-875 987-437 613-662 1138-200-550-425-913-225-362-488-662-262-300-675-600-412-300-937-600Q475-275 225-50q525 175 1037 500 513 325 838 737 325 413 525 863t250 875H1500q-600 0-950-25v550q350-25 950-50h1400z" transform="scale(.01563)"/><path id="SimHei-56de" d="M5650 4850q-25-725-25-1400V950q0-650 25-1325h-500v475H1175v-475H700q25 625 25 1325v2500q0 650-25 1400h4950zM5150 500v3925H1200V500h3950zm-825 3000q-25-375-25-750v-575q0-325 25-775H2025q25 450 25 775v625q0 350-25 700h2300zm-500-1675v1275H2500V1825h1325z" transform="scale(.01563)"/><path id="SimHei-64a4" d="M4300 2075q-150 275-325 425 275 475 462 1300 188 825 238 1400 275-75 525-125-50-125-125-400t-150-600q875 0 1250 25v-425q-225 25-400 25-25-925-100-1688-75-762-325-1412 325-400 825-675-200-200-325-450-550 475-750 750-325-425-800-800-125 200-375 375 550 275 900 800-250 600-425 1700l-100-225zm-325 475q-50-325-50-650V50q0-300-175-362-175-63-575-138-50 250-175 500 300 0 400 12 100 13 100 238v350H2500V-425h-450q25 375 25 750v1575q0 325-25 650h1925zM1000 3875q0 825-25 1325h475q-25-400-25-1325 225 0 475 25v-425q-250 25-475 25v-950q200 75 400 200 0-225 25-500-300-125-425-200V250q0-450-163-550-162-100-662-200-50 250-200 550 375 0 487 25 113 25 113 300v1475q-250-125-525-350-100 225-275 500 300 75 800 325v1175q-325 0-675-25v425q350-25 675-25zm2550 450q325 0 625 25v-425q-300 25-1150 25-225-450-425-725l925 100q-100 200-175 300 125 50 350 175 150-275 425-850-175-75-375-175-50 175-100 250-450-50-900-113-450-62-650-137-100 275-150 425 275 50 400 262 125 213 225 488-250 0-600-25v425q425-25 800-25h775zm1525-3300q125 375 200 1212 75 838 75 1463h-500q-100-475-175-750 75-1050 400-1925zm-1575 25v375H2500v-375h1000zm0 725v375H2500v-375h1000zm-550 3450q225-250 475-625-200-100-375-250-275 450-425 625 200 125 325 250z" transform="scale(.01563)"/><path id="SimHei-39" d="M800 75q550 925 900 1675-625-100-1038 162-412 263-500 713-87 450 13 812 100 363 312 600 213 238 513 338t537 100q238 0 488-100t450-300q200-200 275-413 75-212 75-550 0-337-250-862T1350 75H800zM662 2875q38-325 275-538 238-212 513-187t437 150q163 125 313 425 100 375 50 637-50 263-263 438-212 175-462 175-150 25-388-75-237-100-375-400-137-300-100-625z" transform="scale(.01563)"/><path id="SimHei-5e74" d="M350 2925q550 525 1025 1275t525 1075q375-150 700-225-225-225-500-725h2525q550 0 1125 25v-425q-525 25-1125 25h-825V2925q950 0 1675 25v-425q-750 25-1675 25V1375h1275q550 0 1025 25V975q-450 25-1025 25H3800V425q0-575 25-1050h-550q25 475 25 1000v625H1600q-700 0-1325-25v425q600-25 1175-25 0 975-25 1550h1875v1025H1875q-525-800-950-1300-275 225-575 275zm2950-1550v1175H1925V1375h1375z" transform="scale(.01563)"/><path id="SimHei-5316" d="M3925 5025q-25-125-25-625V2625q475 400 875 825t625 850q200-200 500-375-200-225-675-713-475-487-738-700-262-212-587-487V450q0-400 325-400h975q200 25 262 212 63 188 113 588 225-200 575-250-150-700-325-850t-475-150H3950q-525 0-550 600v1475q-175-150-438-325-262-175-587-375-150 250-350 425 325 150 712 387 388 238 663 463v2250q0 300-25 525h550zm-1525-175q-225-300-325-513-100-212-250-562V675q0-750 25-1225h-525q25 425 25 1200v2400q-225-325-388-525-162-200-287-350-175 200-400 350 350 325 600 687 250 363 437 700 188 338 313 663t200 525q150-125 575-250z" transform="scale(.01563)"/><path id="SimHei-590f" d="M4925 5075q550 0 1025 25v-425q-475 25-1000 25H3375l-175-375h2100q-25-525-25-1275t25-1150H2650q-125-150-325-350h2800q-225-300-563-638-337-337-812-687Q4200 75 4850-25t1300-100q-225-250-325-500-825 100-1363 225-537 125-1162 375-625-275-1163-400-537-125-1512-250-100 275-250 500 425 0 1112 88 688 87 1338 312-500 300-1000 800-425-325-850-575-150 200-400 375 375 125 825 450t675 625h-875q25 375 25 1125 0 775-25 1300h1450l175 375H1425q-550 0-1000-25v425q450-25 975-25h3525zm-150-1475v375H1725v-375h3050zm0-675v325H1725v-325h3050zm0-675v325H1725v-325h3050zM3300 450q500 275 925 750H2250q525-525 1050-750z" transform="scale(.01563)"/><path id="SimHei-666e" d="M5200 1875q-25-500-25-1250 0-725 25-1275h-500v300H1700v-300h-500q25 550 25 1200 0 675-25 1325h4000zM325 2750q425-25 2025-25v1325q-1050 0-1675-25v425q625-25 1525-25-150 325-425 600 175 125 350 275 300-300 550-625-225-150-400-250h1475q300 525 375 875l575-250q-175-175-450-625 1075 0 1450 25v-450q-375 25-1700 25V2725q1725 0 2100 25v-425q-350 25-875 25H1200q-425 0-875-25v425zM4700 50v500H1700V50h3000zm0 925v500H1700V975h3000zM3575 2725v1300h-800V2725h800zm1775 950q-50-50-213-313-162-262-362-612-175 125-375 225 325 525 475 975 225-175 475-275zm-3775-875q-225 525-500 825 200 100 375 250 250-325 550-800-250-125-425-275z" transform="scale(.01563)"/><path id="SimHei-6bd4" d="M3775 5100q-25-525-25-1000V3050q1175 550 1725 1125 200-275 425-500-300-175-863-488-562-312-1287-637V450q0-350 300-350h950q175 0 262 150 88 150 188 650 200-125 575-225-175-675-375-850t-425-175H3900q-650 0-650 625v3725q0 550-25 1100h550zm-2500-125q-25-400-25-975v-850h600q475 0 1025 25v-525q-550 25-1025 25h-600V475q400 175 712 337 313 163 888 463 50-325 100-525-575-275-1188-575-612-300-837-500-175 225-350 525 125 100 175 400v3350q0 600-25 1025h550z" transform="scale(.01563)"/><path id="SimHei-8d85" d="M1750 2700q-800 0-1275-25v450q475-25 1150-25v800q-550 0-1000-25v475q450-25 1000-25 0 425-25 875h500q-25-400-25-875 425 0 850 25v-475q-400 25-850 25v-800q475 0 1000 25v-225q425 250 650 675t250 875q-375 0-750-25v450q375-25 675-25h1950q-50-325-50-650l-50-875q-25-425-288-563-262-137-737-212-50 275-200 525 400 0 562 50 163 50 188 275l50 1050h-850q-100-725-363-1188-262-462-662-762-100 100-375 300v-125q-525 25-875 25v-850q325 0 800 25v-475q-450 25-800 25V300Q2825 25 3925 0t2250 100q-225-325-250-600-1000-25-1675-25t-1225 88q-550 87-1025 312t-925 750Q950 75 675-475 425-275 200-175q275 400 375 812 100 413 137 750 38 338 38 813l600-100q-125-350-175-1000 225-300 575-550v2150zm4050-300q-25-500-25-1025t25-925H3500q25 325 25 875 0 575-25 1075h2300zM5325 875v1100H3975V875h1350z" transform="scale(.01563)"/><path id="SimHei-989d" d="M1925 3700q-200-150-375-350h1400q-75-200-250-475t-400-575q200-100 412-225 213-125 563-350-150-150-325-400-250 200-475 337-225 138-525 288-375-300-800-575h1650q-25-425-25-875t25-950h-475v400H1325v-525H875q25 500 25 850v900q-225-100-350-175-150 225-325 400 400 150 750 362 350 213 575 438-250 150-475 275 100 150 275 325 275-150 575-300 225 250 375 500H1300q-100-125-275-313-175-187-375-412-175 150-400 300 400 300 687 662 288 363 438 688 275-125 550-225zm2225 700q-375 0-775-25v450q375-25 825-25h1100q300 0 700 25v-450q-375 25-700 25h-350q-100-425-225-875h1025q-25-400-25-750V1625q0-325 25-800h-450v2350H3925V800h-475q25 475 25 850v1150q0 375-25 725h850q100 500 150 875h-300zm-2100 700q50-275 150-625h1025q-25-200-25-400t25-400h-450v425H875v-600H400q25 275 25 500 0 250-25 475h1250q-100 275-175 525 325 50 575 100zm2875-2375q-75-300-88-700-12-400-125-850-112-450-450-925-337-475-1012-925-200 250-400 425 525 225 837 512 313 288 475 675 163 388 188 813t25 1025q200-25 550-50zM2325 325v700H1325V325h1000zm2750 475q225-225 412-400 188-175 538-500-225-175-425-400-150 225-325 413-175 187-600 487 200 175 400 400z" transform="scale(.01563)"/></defs><use xlink:href="#SimHei-7d2f"/><use xlink:href="#SimHei-8ba1" x="100"/><use xlink:href="#SimHei-6536" x="200"/><use xlink:href="#SimHei-76ca" x="300"/><use xlink:href="#SimHei-7387" x="400"/><use xlink:href="#SimHei-ff1a" x="500"/><use xlink:href="#SimHei-35" x="600"/><use xlink:href="#SimHei-35" x="650"/><use xlink:href="#SimHei-2e" x="700"/><use xlink:href="#SimHei-35" x="750"/><use xlink:href="#SimHei-34" x="800"/><use xlink:href="#SimHei-25" x="850"/><use xlink:href="#SimHei-20" x="900"/><use xlink:href="#SimHei-7c" x="950"/><use xlink:href="#SimHei-20" x="1000"/><use xlink:href="#SimHei-6700" x="1050"/><use xlink:href="#SimHei-5927" x="1150"/><use xlink:href="#SimHei-56de" x="1250"/><use xlink:href="#SimHei-64a4" x="1350"/><use xlink:href="#SimHei-ff1a" x="1450"/><use xlink:href="#SimHei-2d" x="1550"/><use xlink:href="#SimHei-32" x="1600"/><use xlink:href="#SimHei-32" x="1650"/><use xlink:href="#SimHei-2e" x="1700"/><use xlink:href="#SimHei-39" x="1750"/><use xlink:href="#SimHei-34" x="1800"/><use xlink:href="#SimHei-25" x="1850"/><use xlink:href="#SimHei-20" x="1900"/><use xlink:href="#SimHei-7c" x="1950"/><use xlink:href="#SimHei-20" x="2000"/><use xlink:href="#SimHei-5e74" x="2050"/><use xlink:href="#SimHei-5316" x="2150"/><use xlink:href="#SimHei-6536" x="2250"/><use xlink:href="#SimHei-76ca" x="2350"/><use xlink:href="#SimHei-7387" x="2450"/><use xlink:href="#SimHei-ff1a" x="2550"/><use xlink:href="#SimHei-31" x="2650"/><use xlink:href="#SimHei-37" x="2700"/><use xlink:href="#SimHei-2e" x="2750"/><use xlink:href="#SimHei-31" x="2800"/><use xlink:href="#SimHei-32" x="2850"/><use xlink:href="#SimHei-25" x="2900"/><use xlink:href="#SimHei-20" x="2950"/><use xlink:href="#SimHei-7c" x="3000"/><use xlink:href="#SimHei-20" x="3050"/><use xlink:href="#SimHei-590f" x="3100"/><use xlink:href="#SimHei-666e" x="3200"/><use xlink:href="#SimHei-6bd4" x="3300"/><use xlink:href="#SimHei-7387" x="3400"/><use xlink:href="#SimHei-ff1a" x="3500"/><use xlink:href="#SimHei-30" x="3600"/><use xlink:href="#SimHei-2e" x="3650"/><use xlink:href="#SimHei-37" x="3700"/><use xlink:href="#SimHei-37" x="3750"/><use xlink:href="#SimHei-20" x="3800"/><use xlink:href="#SimHei-7c" x="3850"/><use xlink:href="#SimHei-20" x="3900"/><use xlink:href="#SimHei-8d85" x="3950"/><use xlink:href="#SimHei-989d" x="4050"/><use xlink:href="#SimHei-6536" x="4150"/><use xlink:href="#SimHei-76ca" x="4250"/><use xlink:href="#SimHei-7387" x="4350"/><use xlink:href="#SimHei-ff1a" x="4450"/><use xlink:href="#SimHei-36" x="4550"/><use xlink:href="#SimHei-30" x="4600"/><use xlink:href="#SimHei-2e" x="4650"/><use xlink:href="#SimHei-34" x="4700"/><use xlink:href="#SimHei-31" x="4750"/><use xlink:href="#SimHei-25" x="4800"/></g><g id="legend_1"><path d="M52.8 81.24h82q2 0 2-2V37.387q0-2-2-2h-82q-2 0-2 2v41.851q0 2 2 2z" style="fill:#fff;opacity:.8;stroke:#ccc;stroke-linejoin:miter" id="patch_7"/><path d="M54.8 43.934h20" style="fill:none;stroke:gray;stroke-linecap:square" id="line2d_18"/><g transform="matrix(.1 0 0 -.1 82.8 47.434)" id="text_16"><defs><path id="SimHei-6caa" d="M5925 4075q-25-450-25-1200t25-1150h-525v250H3225q-50-725-238-1313-187-587-737-1337-225 175-525 300 450 425 662 887 213 463 288 1000 75 538 75 1313t-25 1250h3200zm-525-1700v1300H3225V2375h2175zm-3300-700q-225-325-600-1038Q1125-75 950-425 725-275 400-100q250 225 675 975t550 1125q225-225 475-325zM550 3525q675-350 1225-650-225-250-325-475-475 350-1175 675 150 175 275 450zm1150 400q-450 400-1025 775 200 200 300 375 500-325 1050-725-150-175-325-425zm2400 1350q275-425 500-900-275-100-525-225-200 525-425 900 250 75 450 225z" transform="scale(.01563)"/><path id="SimHei-6df1" d="M3675-625q25 450 25 650v1650q-350-700-775-1200t-775-800Q2000-150 1700 0q450 275 900 800t625 1025q-625 0-1100-25v450q400-25 1575-25 0 450-25 825h525q-25-375-25-825 1225 0 1825 25v-450q-400 25-1425 25 175-500 600-963 425-462 950-662-300-125-400-400-525 300-925 762-400 463-625 1188V25q0-150 50-650h-550zm2200 5475q-25-250-25-550 0-275 25-575h-500v725H2550v-800h-475q25 375 25 625t-25 575h3800zM1850 1525q-225-375-488-1038-262-662-387-1012-250 175-600 275Q625 50 950 712q325 663 500 1138 175-200 400-325zm2775 2550q475-425 1075-1100-250-150-400-350-525 725-1050 1150 200 150 375 300zm-925-325q-200-100-500-438-300-337-700-712-175 175-450 300 375 225 725 587 350 363 475 563 175-150 450-300zM550 3650q575-350 1050-750-150-150-300-400-450 475-1025 775 125 175 275 375zm450 1500q450-300 950-750-175-150-325-375-450 500-950 825 175 100 325 300z" transform="scale(.01563)"/><path id="SimHei-45" d="M2900 125H350v4275h2425v-475H925V2600h1700v-475H925V600h1975V125z" transform="scale(.01563)"/><path id="SimHei-54" d="M2850 3925H1850V125h-575v3800H275v475h2575v-475z" transform="scale(.01563)"/><path id="SimHei-46" d="M2925 3925H875V2525h1550v-475H875V125H300v4275h2625v-475z" transform="scale(.01563)"/></defs><use xlink:href="#SimHei-6caa"/><use xlink:href="#SimHei-6df1" x="100"/><use xlink:href="#SimHei-33" x="200"/><use xlink:href="#SimHei-30" x="250"/><use xlink:href="#SimHei-30" x="300"/><use xlink:href="#SimHei-45" x="350"/><use xlink:href="#SimHei-54" x="400"/><use xlink:href="#SimHei-46" x="450"/></g><path d="M54.8 58.192h20" style="fill:none;stroke:orange;stroke-linecap:square" id="line2d_19"/><g transform="matrix(.1 0 0 -.1 82.8 61.692)" id="text_17"><use xlink:href="#SimHei-8d85"/><use xlink:href="#SimHei-989d" x="100"/><use xlink:href="#SimHei-6536" x="200"/><use xlink:href="#SimHei-76ca" x="300"/><use xlink:href="#SimHei-7387" x="400"/></g><path d="M54.8 72.49h20" style="fill:none;stroke:red;stroke-width:2;stroke-linecap:square" id="line2d_20"/><g transform="matrix(.1 0 0 -.1 82.8 75.99)" id="text_18"><defs><path id="SimHei-8d44" d="M5300 2150q-25-325-25-700t25-875h-500v1150H1700V425h-500q25 575 25 950 0 400-25 775h4100zM4225 4075q-175-300-25-513 150-212 412-400 263-187 650-312 388-125 863-150-200-275-300-525-625 125-1113 375-487 250-812 800-225-575-650-800t-925-375q-200 225-400 400 1050 200 1375 600t350 975l575-75zm-1100 175q-300-400-575-600-175 175-375 300 300 200 562 537 263 338 413 713 225-100 550-150-125-225-300-400h2350q-75-150-450-975-300 75-500 100 125 275 225 475H3125zm400-2875q-125-275-188-550-62-275-325-563-262-287-762-537T800-675q-75 250-300 475 725 25 1212 188 488 162 738 362t362 487q113 288 113 613 300-50 600-75zm300-675q475-175 925-350t1075-450q-150-200-275-500-475 275-938 475-462 200-987 375 125 200 200 450zM2075 3325q-625-575-1200-1275-250 275-400 375 800 625 1250 1200 125-125 350-300zm-375 650q-400 300-1075 700 175 175 300 350 225-150 1075-675-150-150-300-375z" transform="scale(.01563)"/><path id="SimHei-4ea7" d="M5050 3700q-125-150-288-438-162-287-287-537h775q525 0 700 25v-500q-200 25-650 25H1525q0-1975-950-2900-100 200-375 375 650 725 750 1512 100 788 50 1463h2950q325 675 475 1250 325-150 625-275zM3500 5275q50-175 200-800h1250q450 0 850 25v-475q-400 25-775 25H2000q-375 0-950-25v475q600-25 775-25h1300q-75 325-200 675 300 75 575 125zM2375 3950q300-400 575-925-250-100-525-250-225 525-525 900 250 150 475 275z" transform="scale(.01563)"/></defs><use xlink:href="#SimHei-8d44"/><use xlink:href="#SimHei-4ea7" x="100"/></g></g></g></g><defs><clipPath id="p821f250437"><path d="M45.8 30.387h892.8v221.76H45.8z"/></clipPath></defs></svg>